<svg xmlns="http://www.w3.org/2000/svg" width="600" height="450" viewBox="0 0 600 450">
  <defs>
    <linearGradient id="ny-sky" x1="0" y1="0" x2="0" y2="1">
      <stop offset="0%" stop-color="#1a1a2e"/>
      <stop offset="100%" stop-color="#16213e"/>
    </linearGradient>
  </defs>
  <rect width="600" height="450" fill="url(#ny-sky)"/>
  <rect x="0" y="280" width="600" height="170" fill="#111"/>
  <rect x="40" y="180" width="50" height="200" fill="#333"/>
  <rect x="110" y="140" width="45" height="240" fill="#444"/>
  <rect x="170" y="160" width="55" height="220" fill="#555"/>
  <rect x="250" y="100" width="60" height="280" fill="#666"/>
  <rect x="330" y="130" width="50" height="250" fill="#444"/>
  <rect x="400" y="150" width="55" height="230" fill="#555"/>
  <rect x="480" y="170" width="45" height="210" fill="#333"/>
  <rect x="265" y="70" width="30" height="30" fill="#FFD700" opacity="0.9"/>
  <rect x="120" y="200" width="8" height="8" fill="#FF6B6B"/>
  <rect x="180" y="190" width="8" height="8" fill="#4ECDC4"/>
  <rect x="340" y="180" width="8" height="8" fill="#FFE66D"/>
  <rect x="420" y="210" width="8" height="8" fill="#FF6B6B"/>
</svg>
